<svg width="484" height="915" viewBox="0 0 484 915" fill="none" xmlns="http://www.w3.org/2000/svg">
<path d="M238.066 259.318C232.739 253.828 209.073 195.626 203.336 184.116C199.309 175.927 194.431 168.184 188.783 161.017C187.102 158.896 175.578 145.026 174.359 142.634C160.256 114.773 147.217 84.8502 134.665 56.3781C128.255 41.8384 166.76 26.6974 176.423 25.3978C186.655 24.0219 192.196 23.9561 197.306 33.8346C205.639 49.9403 213.02 65.5871 220.468 82.0207C228.912 99.3757 234.912 110.428 238.641 129.653C241.889 142.81 244.033 151.206 248.515 163.974C251.973 170.631 282.21 236.218 282.363 239.21L278.195 237C265.261 236.794 246.632 244.497 239.271 255.551L238.066 259.318Z" fill="#FFAD1F"/>
<path d="M238.066 259.318C232.739 253.828 209.073 195.626 203.336 184.116C199.309 175.927 194.431 168.184 188.783 161.017C187.102 158.896 175.578 145.026 174.359 142.634C160.256 114.773 147.217 84.8502 134.665 56.3781C128.255 41.8384 166.76 26.6974 176.423 25.3978C186.655 24.0219 192.196 23.9561 197.306 33.8346C205.639 49.9403 213.02 65.5871 220.468 82.0207C228.912 99.3757 234.912 110.428 238.641 129.653C241.889 142.81 244.033 151.206 248.515 163.974C251.973 170.631 282.21 236.218 282.363 239.21L278.195 237C279.044 234.813 269.434 215.721 267.707 211.958C259.929 195.246 252.367 178.435 245.022 161.529C241.82 154.952 237.431 135.489 235.84 128.364C234.981 124.569 233.564 116.313 232.062 112.988C220.211 86.744 207.756 60.6929 194.873 34.9401C190.473 26.1677 185.43 26.2776 176.551 28.4432C166.114 30.9894 132.685 41.9819 137.788 57.471C140.392 65.3735 146.897 78.082 150.595 86.0924L164.796 116.643C166.624 120.644 173.279 135.977 175.184 138.441C178.727 143.025 190.718 161.278 194.196 164.186C203.695 172.13 235.028 253.518 239.271 255.551L238.066 259.318Z" fill="#B97900"/>
<path d="M167.057 70.8965C168.314 65.0754 179.593 48.9443 173.263 45.2407C163.874 44.5122 167.21 56.0953 159.547 53.9423C152.633 36.8825 189.691 31.6429 181.939 54.6542C180.676 58.4038 174.95 64.7636 175.348 68.5932C177.883 68.0177 183.004 66.3354 184.956 64.6763C187.402 63.1177 186.703 63.063 189.227 63.1164C191.585 64.451 192.811 66.9501 191.228 69.3716L188.76 70.6704C185.598 71.4872 182.724 72.9847 179.763 74.3769L170.209 78.487L167.057 70.8965Z" fill="#684D02"/>
<path d="M239.266 255.553C246.627 244.499 265.256 236.796 278.19 237.002L282.359 239.212C285.702 251.21 294.414 263.77 295.668 275.549C295.811 276.896 293.861 280.343 293.105 281.735C294.287 286.415 296.499 291.011 298.267 295.522C305.697 314.475 314.139 333.256 321.139 352.364C322.44 355.282 323.932 358.392 324.888 361.425L322.676 361.988L322.034 361.978C320.671 361.796 318.046 362.171 316.562 362.327C314.721 362.944 311.106 364.038 309.543 364.905L306.813 365.891L306.807 366.241L303.179 368.034L302.338 368.086L302.015 369.093C300.126 370.393 297.859 371.869 296.109 373.301L294.839 374.118C293.59 372.881 291.492 367.474 290.667 365.549C287.993 357.685 283.522 347.613 280.242 339.729C274.119 324.921 267.831 310.179 261.383 295.513C259.113 294.935 257.569 294.592 255.612 293.242C249.309 288.889 242.468 262.229 238.062 259.32L239.266 255.553Z" fill="#62605F"/>
<path d="M269.223 285.728C272.937 283.52 285.238 277.742 289.28 279.943C292.188 286.085 317.878 350.071 317.957 351.2C317.974 351.435 317.688 352.287 317.575 352.502C317.472 352.701 317.389 352.75 317.237 352.881C312.174 352.945 308.684 354.706 304.052 356.629L300.162 358.534C295.224 356.192 275.609 293.907 268.347 286.263L269.223 285.728Z" fill="#CAC8C6"/>
<path d="M269.222 285.729C271.697 285.066 271.687 284.633 273.714 285.321C275.868 288.637 279.289 297.091 280.954 300.977C286.132 313.326 291.236 325.706 296.267 338.12C298.175 342.808 301.858 352.621 304.051 356.629L300.16 358.534C295.223 356.192 275.608 293.908 268.346 286.264L269.222 285.729Z" fill="#F5F5F4"/>
<path d="M266.794 287.504L268.346 286.262C275.607 293.906 295.223 356.191 300.16 358.533L298.178 359.688C296.733 360.649 293.885 362.427 292.686 363.489C287.654 350.488 282.381 337.668 276.852 324.875C272.361 314.48 267.74 301.972 262.601 291.961C263.886 290.485 265.432 288.934 266.794 287.504Z" fill="#B0ABA8"/>
<path d="M266.795 287.506L268.347 286.265C275.608 293.909 295.224 356.193 300.161 358.535L298.179 359.691C297.71 359.62 296.384 358.897 296.32 358.757C287.422 339.535 279.932 318.926 271.631 299.418C269.748 294.99 268.921 290.01 266.795 287.506Z" fill="#CAC8C6"/>
<path d="M304.054 356.63C308.686 354.707 312.176 352.946 317.238 352.882C318.734 353.229 319.696 352.801 321.148 352.363C322.449 355.281 323.941 358.391 324.897 361.424L322.685 361.986L322.042 361.977C320.68 361.795 318.055 362.17 316.57 362.326C314.73 362.943 311.114 364.037 309.552 364.904L306.821 365.89L306.815 366.239L303.188 368.033L302.347 368.085L302.024 369.092C300.135 370.392 297.868 371.868 296.118 373.3L294.848 374.117C293.599 372.88 291.501 367.473 290.676 365.548L292.689 363.492C293.888 362.429 296.736 360.652 298.182 359.69L300.164 358.535L304.054 356.63Z" fill="#141414"/>
<path d="M305.211 364.78C307.761 362.928 312.131 361.401 315.19 360.19L315.605 361.788L316.565 362.322C314.724 362.939 311.109 364.033 309.546 364.901L306.816 365.886C305.388 366.134 304.992 366.257 303.557 365.894L305.211 364.78Z" fill="#2D2C2C"/>
<path d="M252.832 247.086C257.861 243.634 267.092 241.251 273.035 239.658C275.097 239.693 277.52 239.665 279.535 239.931C282.181 246.137 294.36 272.068 292.551 277.158L291.706 277.738C289.773 277.158 288.163 276.489 286.19 276.918C280.024 278.006 271.888 280.431 267.01 284.491C261.981 287.867 260.579 292.047 257.572 291.796C256.795 291.154 255.732 290.332 255.035 289.646C254.359 284.189 242.675 264.921 241.456 257.178C242.216 254.184 244.669 252.56 247.154 250.861L247.855 250.467C248.788 249.584 251.625 247.863 252.832 247.086Z" fill="#D6D4D2"/>
<path d="M255.029 289.645C254.352 284.189 242.668 264.92 241.449 257.178C242.209 254.184 244.663 252.56 247.147 250.861C247.411 254.101 257.844 276.216 259.913 281.175C261.058 283.686 260.663 283.887 262.63 285.138C264.134 284.945 265.509 284.753 267.003 284.491C261.974 287.867 260.573 292.047 257.565 291.796C256.788 291.154 255.725 290.332 255.029 289.645Z" fill="#B0ABA8"/>
<path d="M259.916 281.175C261.061 283.686 260.666 283.887 262.633 285.138C264.137 284.945 265.512 284.753 267.006 284.491C261.977 287.867 260.576 292.047 257.568 291.796C256.791 291.154 255.729 290.332 255.032 289.646C258.872 285.733 260.434 286.902 259.916 281.175Z" fill="#B0ABA8"/>
<path d="M273.031 239.656C275.093 239.691 277.516 239.664 279.531 239.929C282.177 246.135 294.356 272.066 292.547 277.157L291.702 277.737C289.769 277.156 288.159 276.488 286.186 276.916C286.625 275.709 286.941 274.999 287.107 273.705C282.903 263.148 276.531 250.028 273.031 239.656Z" fill="#B0ABA8"/>
<path d="M252.829 247.087C254.49 248.168 255.88 254.234 256.854 256.592C259.867 263.89 263.003 271.667 267.165 278.385L266.816 279.72C264.514 280.902 264.941 281.149 262.841 280.794C260.548 278.41 251.749 256.412 247.852 250.468C248.785 249.585 251.622 247.864 252.829 247.087Z" fill="#F5F5F4"/>
<path d="M410.233 609.837C413.714 608.471 416.791 607.23 420.59 607.052L423.125 606.418C433.785 634.498 446.484 662.906 456.695 690.884L454.399 691.42C449.981 692.631 447.653 693.346 443.459 695.14C442.345 695.597 439.893 696.53 438.947 697.048L435.893 698.542L433.607 699.839C432.136 700.77 431.413 701.219 429.816 701.912L429.518 702.83L427.218 703.677C424.975 696.767 420.939 687.351 418.216 680.513L402.675 641.583C399.724 634.284 395.777 625.24 393.531 617.845L395.768 617.611L399.09 615.296L402.714 613.081L404.897 611.559L410.233 609.837Z" fill="#F5F5F4"/>
<path d="M410.23 609.836C413.71 608.47 416.787 607.229 420.587 607.05L423.122 606.417C433.782 634.497 446.481 662.905 456.691 690.883L454.395 691.418C449.977 692.63 447.65 693.345 443.456 695.139C442.768 689.419 437.96 679.409 435.633 673.795L421.174 638.356C417.878 630.445 412.093 617.718 410.23 609.836Z" fill="#CAC8C6"/>
<path d="M420.586 607.051L423.121 606.417C433.781 634.497 446.48 662.905 456.691 690.883L454.395 691.419C443.309 666.474 430.405 632.585 420.586 607.051Z" fill="#62605F"/>
<path d="M395.768 617.608L399.091 615.293L418.079 663.906C421.416 672.696 424.844 681.443 428.166 690.237C429.183 692.931 430.717 699.02 433.607 699.836C432.136 700.767 431.413 701.215 429.817 701.909L429.519 702.827L427.218 703.674C424.975 696.764 420.94 687.348 418.216 680.51L402.675 641.58C399.725 634.281 395.778 625.237 393.531 617.842L395.768 617.608Z" fill="#B0ABA8"/>
<path d="M393.531 617.844L395.768 617.609C399.128 625.464 429.141 701.322 429.817 701.91L429.519 702.828L427.218 703.675C424.975 696.766 420.94 687.349 418.216 680.511L402.675 641.581C399.725 634.282 395.778 625.239 393.531 617.844Z" fill="#62605F"/>
<path d="M404.895 611.559L410.232 609.837C412.094 617.719 417.88 630.446 421.175 638.357L435.634 673.796C437.962 679.41 442.77 689.42 443.457 695.14C442.344 695.597 439.891 696.53 438.945 697.048C438.902 695.441 437.165 689.718 436.475 688.382C431.033 677.847 410.409 616.667 404.895 611.559Z" fill="#D6D4D2"/>
<path d="M399.085 615.294L402.709 613.078C402.584 614.232 402.584 616.546 403.073 617.465C408.093 626.866 432.789 696.182 435.888 698.539L433.602 699.837C430.712 699.021 429.178 692.931 428.161 690.238C424.839 681.443 421.411 672.697 418.074 663.906L399.085 615.294Z" fill="#CAC8C6"/>
<path d="M344.466 440.416L352.863 438.369L355.597 438.071C358.475 442.937 370.228 472.975 371.685 478.366C375.317 486.555 385.449 515.441 389.353 520.861C386.967 521.478 384.893 521.894 382.488 522.346C380.899 522.564 378.684 523.361 377.088 523.871C375.953 524.41 373.117 525.653 372.187 526.242L368.462 527.835L365.182 529.847C363.744 531.04 363.44 531.207 361.76 531.987C360.645 530.067 353.56 511.526 352.257 508.097L348.893 506.807C347.373 502.137 344.262 495.42 342.323 490.575C336.903 477.183 331.568 463.748 326.321 450.282L328.247 450.325C328.809 449.472 330.851 447.433 331.667 446.585L334.56 444.852L337.152 443.153C339.424 442.536 342.231 441.307 344.466 440.416Z" fill="#F5F5F4"/>
<path d="M344.469 440.418L352.866 438.371L355.6 438.073C358.477 442.939 370.231 472.977 371.687 478.368C375.319 486.557 385.452 515.443 389.356 520.863C386.969 521.48 384.895 521.896 382.491 522.348C380.901 522.565 378.686 523.363 377.09 523.873C375.426 517.94 372.161 510.716 370.093 504.846C364.324 488.478 357.752 472.652 350.691 456.81C348.495 451.886 347.536 445.098 344.469 440.418Z" fill="#CAC8C6"/>
<path d="M344.469 440.418L352.866 438.371L354.104 440.477C351.888 440.206 351.988 439.83 350.542 440.798C350.737 447.199 377.37 511.155 381.871 520.713C382.053 521.099 383.375 521.544 383.979 521.666L382.491 522.348C380.901 522.565 378.686 523.363 377.09 523.873C375.426 517.94 372.161 510.716 370.093 504.846C364.324 488.478 357.752 472.652 350.691 456.81C348.495 451.886 347.536 445.098 344.469 440.418Z" fill="#BDBBB8"/>
<path d="M369.25 478.68L371.688 478.37C375.32 486.56 385.453 515.445 389.357 520.865C386.97 521.483 384.896 521.899 382.492 522.351L383.98 521.668C385.364 521.199 385.154 521.504 385.859 520.523C381.274 507.365 374.464 492.06 369.25 478.68Z" fill="#62605F"/>
<path d="M352.867 438.371L355.601 438.074C358.479 442.94 370.232 472.978 371.688 478.368L369.25 478.678C364.707 467.828 357.661 451.313 354.105 440.478L352.867 438.371Z" fill="#62605F"/>
<path d="M337.155 443.155C339.427 442.538 342.235 441.309 344.469 440.418C347.537 445.098 348.496 451.886 350.691 456.81C357.752 472.652 364.324 488.478 370.093 504.846C372.162 510.716 375.427 517.94 377.091 523.873C375.956 524.412 373.121 525.655 372.19 526.244C370.678 521.141 368.097 516.065 366.149 511.084C357.735 489.571 348.938 468.208 340.52 446.702C339.612 444.383 339.312 443.986 337.155 443.155Z" fill="#D6D4D2"/>
<path d="M328.248 450.325C328.81 449.472 330.851 447.434 331.668 446.586C334.116 453.608 364.756 529.372 365.182 529.847C363.745 531.04 363.441 531.207 361.761 531.987C360.645 530.068 353.56 511.527 352.258 508.098L348.893 506.808C347.373 502.137 344.263 495.42 342.324 490.576C336.904 477.183 331.568 463.749 326.321 450.283L328.248 450.325Z" fill="#B0ABA8"/>
<path d="M326.32 450.285L328.247 450.328C331.829 455.123 349.111 500.483 352.257 508.1L348.892 506.81C347.372 502.139 344.262 495.423 342.323 490.578C336.903 477.186 331.567 463.751 326.32 450.285Z" fill="#62605F"/>
<path d="M334.562 444.85C335.482 448.506 340.998 461.757 342.673 465.417C346.115 472.939 366.02 526.347 368.464 527.832L365.184 529.844C364.758 529.369 334.118 453.605 331.669 446.583L334.562 444.85Z" fill="#D6D4D2"/>
<path d="M389.668 523.557C391.172 525.855 397.575 542.393 398.928 545.77L421.121 601.396L421.357 603.498C419.288 605.785 411.691 606.786 407.854 608.277C407.232 608.521 405.869 609.01 405.347 609.302L402.295 610.548L399.753 612.215C398.016 613.194 396.449 614.038 394.845 615.245L392.927 617.35C385.295 595.27 372.892 566.425 363.864 544.47L365.494 545.791C366.213 544.211 365.451 542.066 365.097 540.066C364.501 538.715 363.916 537.355 363.346 535.991C363.962 533.491 364.657 533.518 366.812 531.619L368.967 530.162L373.108 528.136L377.233 526.526C378.972 525.995 382.285 524.878 383.953 524.664L387.625 524.022L389.668 523.557Z" fill="#CAC8C6"/>
<path d="M368.969 530.161L373.11 528.136C374.417 529.939 374.643 531.513 375.351 533.572C384.181 559.231 395.866 583.951 405.349 609.301L402.297 610.548L399.754 612.214C398.017 613.194 396.45 614.037 394.846 615.245L392.929 617.35C385.296 595.269 372.894 566.425 363.865 544.47L365.496 545.79C366.215 544.21 365.453 542.065 365.099 540.065C364.503 538.715 363.918 537.354 363.348 535.99C363.964 533.491 364.659 533.518 366.814 531.618L368.969 530.161Z" fill="#B0ABA8"/>
<path d="M368.967 530.159L373.108 528.133C374.415 529.936 374.641 531.51 375.349 533.57C384.179 559.228 395.865 583.949 405.347 609.299L402.295 610.545C401.97 610.472 401.144 610.014 400.795 609.833C395.259 597.656 389.696 582.742 384.566 570.122C379.649 558.025 372.87 542.306 368.967 530.159Z" fill="#F5F5F4"/>
<path d="M366.814 531.615L368.968 530.158C372.871 542.306 379.65 558.024 384.567 570.122C389.697 582.742 395.26 597.656 400.796 609.833C401.145 610.013 401.971 610.471 402.296 610.545L399.754 612.211C398.423 612.084 398.85 612.142 397.631 611.313C395.252 606.933 392.782 599.677 390.865 594.82L379.432 565.875C376.677 558.749 367.806 537.686 366.814 531.615Z" fill="#D6D4D2"/>
<path d="M365.108 540.063C369.619 549.41 375.212 565.194 379.335 575.345C384.069 587.001 391.357 603.677 394.855 615.242L392.937 617.347C385.305 595.267 372.903 566.422 363.874 544.467L365.505 545.788C366.223 544.208 365.461 542.063 365.108 540.063Z" fill="#62605F"/>
<path d="M373.11 528.133L377.236 526.523C382.692 533.784 394.691 569.179 399.293 580.075C400.459 582.834 402.401 591.073 403.92 594.865C405.247 598.18 409.747 604.179 410.183 606.061L407.857 608.274C407.234 608.518 405.871 609.007 405.35 609.299C395.867 583.949 384.182 559.228 375.352 533.569C374.644 531.51 374.417 529.936 373.11 528.133Z" fill="#D6D4D2"/>
<path d="M377.232 526.524C378.97 525.993 382.284 524.876 383.952 524.662C382.942 529.863 415.02 600.844 413.285 604.977L416.408 605.191C413.726 605.866 412.937 606.017 410.179 606.062C409.743 604.18 405.243 598.181 403.916 594.866C402.397 591.074 400.455 582.835 399.289 580.075C394.687 569.18 382.688 533.785 377.232 526.524Z" fill="#BDBBB8"/>
<path d="M389.673 523.554C391.176 525.852 397.58 542.39 398.933 545.767L421.126 601.393L421.362 603.495C419.293 605.782 411.695 606.783 407.859 608.275L410.186 606.061C412.943 606.017 413.732 605.865 416.414 605.19C417.074 604.987 417.939 604.511 418.583 604.185C418.967 601.453 417.374 599.244 416.403 596.626C407.504 572.649 395.706 548.162 387.63 524.019L389.673 523.554Z" fill="#62605F"/>
<path d="M316.564 362.324C318.049 362.168 320.674 361.793 322.036 361.975L322.678 361.985L324.89 361.422L344.993 411.475C347.033 416.556 352.908 431.876 355.377 436.098L352.212 435.966L347.027 436.874L342.886 438.393L337.908 440.514L337.423 440.694L332.115 443.672L327.706 447.138C325.332 441.961 323.734 437.849 321.737 432.528L319.335 433.832C310.48 414.188 303.294 393.184 294.842 374.115L296.112 373.298C297.861 371.866 300.129 370.39 302.017 369.09L302.34 368.083L303.181 368.031L306.809 366.238L306.815 365.888L309.545 364.902C311.108 364.035 314.723 362.941 316.564 362.324Z" fill="#D6D4D2"/>
<path d="M303.187 368.028L306.814 366.235C308.973 368.318 310.959 375.09 312.218 378.158L322.895 403.705C326.514 412.322 330.074 420.961 333.574 429.624C334.494 431.889 337.44 438.646 337.914 440.511L337.429 440.691L332.12 443.669L327.711 447.136C325.337 441.958 323.74 437.846 321.743 432.525L319.341 433.83C310.485 414.185 303.299 393.181 294.847 374.112L296.117 373.295C297.867 371.863 300.134 370.388 302.023 369.087L302.346 368.08L303.187 368.028Z" fill="#F5F5F4"/>
<path d="M302.021 369.088C306.275 385.482 313.424 400.495 319.683 416.258C322.472 423.279 327.311 436.771 330.666 443.034L332.119 443.67L327.71 447.137C325.335 441.959 323.738 437.847 321.741 432.526L319.339 433.831C310.483 414.186 303.298 393.182 294.845 374.113L296.115 373.296C297.865 371.864 300.132 370.389 302.021 369.088Z" fill="#B0ABA8"/>
<path d="M294.846 374.116L296.116 373.298C299.784 378.038 309.339 402.679 312.023 409.148C313.76 413.334 320.313 428.306 321.742 432.528L319.34 433.833C310.484 414.188 303.299 393.184 294.846 374.116Z" fill="#62605F"/>
<path d="M302.343 368.082L303.184 368.03C302.887 369.789 329.748 433.63 333.272 441.515C334.685 441.258 336.023 441.01 337.426 440.693L332.118 443.671L330.665 443.035C327.31 436.772 322.471 423.281 319.682 416.259C313.423 400.497 306.274 385.483 302.02 369.089L302.343 368.082Z" fill="#CAC8C6"/>
<path d="M347.029 436.875C345.151 432.886 343.803 428.079 342.184 423.878L330.759 394.596C326.591 383.799 321.9 375.11 318.523 363.808C319.56 362.316 319.852 362.645 322.038 361.976L322.68 361.986L324.892 361.424L344.995 411.476C347.035 416.558 352.91 431.878 355.379 436.099L352.214 435.967L347.029 436.875Z" fill="#CAC8C6"/>
<path d="M322.688 361.984L324.899 361.422L345.002 411.474C347.042 416.556 352.917 431.876 355.386 436.098L352.221 435.966C343.251 413.166 330.238 384.796 322.688 361.984Z" fill="#62605F"/>
<path d="M316.568 362.323C318.053 362.166 320.678 361.792 322.04 361.973C319.855 362.642 319.563 362.313 318.526 363.804C321.903 375.106 326.594 383.796 330.762 394.592L342.187 423.875C343.806 428.075 345.154 432.883 347.031 436.872L342.89 438.392C343.208 435.546 330.069 403.208 328.1 398.638C323.347 387.607 319.911 375.373 315.617 364.296C314.051 363.672 311.323 364.525 309.55 364.901C311.113 364.033 314.728 362.939 316.568 362.323Z" fill="#BDBBB8"/>
<path d="M443.465 695.14C447.659 693.347 449.986 692.632 454.404 691.42L456.7 690.885C458.811 695.548 465.245 710.402 466.321 714.59C468.909 724.659 477.768 772.054 475.845 779.434C474.849 779.998 474.674 780.103 473.552 779.804C467.855 778.263 441.921 736.362 437.926 729.147C433.477 721.11 430.477 712.251 427.223 703.677L429.524 702.831L429.822 701.913C431.419 701.219 432.141 700.77 433.612 699.84L435.899 698.542L438.952 697.049C439.899 696.531 442.351 695.598 443.465 695.14Z" fill="#4A4849"/>
<path d="M434.97 701.697C440.645 698.736 445.058 697.058 451.137 695.16C453.312 694.709 453.791 694.215 455.507 694.898C461.745 705.886 467.824 727.497 468.599 740.014C469.756 746.203 473.333 764.6 473.668 770.267C474.145 772.251 474.327 776.968 474.466 779.224C470.33 774.515 467.669 770.29 464.231 765.074L460.827 759.717C455.917 754.725 442.282 731.84 438.419 724.796C437.245 722.653 431.609 707.961 430.381 704.815L434.97 701.697Z" fill="#CFCDCB"/>
<path d="M430.382 704.814L434.972 701.695L435.883 703.242C439.263 711.945 442.534 720.513 446.444 728.998C450.851 738.564 457.789 749.837 460.828 759.716C455.919 754.723 442.283 731.839 438.421 724.795C437.247 722.651 431.61 707.96 430.382 704.814Z" fill="#BDBBB8"/>
<path d="M435.881 703.245C437.62 701.841 437.895 701.663 439.991 700.899C441.447 701.718 455.697 742.995 459.024 748.051C463.302 754.549 464.826 757.334 464.23 765.076L460.826 759.719C457.787 749.839 450.849 738.567 446.441 729.001C442.532 720.516 439.261 711.947 435.881 703.245Z" fill="#F5F5F4"/>
<path d="M451.141 695.156C453.315 694.706 453.794 694.211 455.51 694.894C461.749 705.882 467.827 727.493 468.603 740.011C465.86 735.847 464.45 729.589 461.727 727.171C460.533 724.452 458.421 716.893 457.29 713.516C455.312 707.608 452.877 701.044 451.141 695.156Z" fill="#CAC8C6"/>
<path d="M461.724 727.174C464.447 729.593 465.857 735.85 468.6 740.014C469.756 746.203 473.334 764.6 473.668 770.266C472.78 770.408 472.976 770.321 472.01 769.953C470.427 764.421 469.106 756.767 467.819 750.969C466.012 742.983 463.98 735.047 461.724 727.174Z" fill="#F5F5F4"/>
<path d="M348.891 506.809L352.255 508.099C353.558 511.528 360.643 530.069 361.758 531.988C363.438 531.208 363.742 531.041 365.18 529.848L368.46 527.836L372.185 526.243C373.115 525.654 375.951 524.411 377.086 523.872C378.682 523.362 380.897 522.565 382.486 522.348C384.891 521.896 386.965 521.48 389.351 520.862L389.668 523.555L387.625 524.02L383.953 524.662C382.285 524.876 378.972 525.993 377.233 526.524L373.108 528.134L368.967 530.16L366.813 531.617C364.658 533.516 363.962 533.49 363.346 535.989C363.917 537.353 364.501 538.713 365.098 540.064C365.451 542.064 366.213 544.209 365.494 545.789L363.864 544.469C358.973 531.877 353.983 519.325 348.891 506.809Z" fill="#4A4849"/>
<path d="M319.344 433.832L321.746 432.528C323.743 437.849 325.34 441.961 327.714 447.138L332.123 443.672L337.432 440.694L337.917 440.514L342.894 438.393L347.035 436.874L352.221 435.966L355.385 436.098L355.605 438.072L352.871 438.37L344.474 440.417C342.239 441.308 339.431 442.537 337.16 443.154L334.568 444.853L331.675 446.586C330.858 447.434 328.816 449.473 328.254 450.326L326.328 450.283C323.881 445.72 321.238 438.721 319.344 433.832Z" fill="#2D2C2C"/>
<path d="M421.123 601.392L423.122 606.416L420.586 607.05C416.787 607.228 413.71 608.469 410.23 609.835L404.893 611.557L402.71 613.078L399.087 615.294L395.764 617.609L393.527 617.843L392.929 617.347L394.847 615.242C396.451 614.034 398.018 613.191 399.755 612.211L402.297 610.545L405.349 609.298C405.871 609.007 407.234 608.518 407.856 608.274C411.693 606.783 419.29 605.781 421.359 603.495L421.123 601.392Z" fill="#2D2C2C"/>
<path d="M108.128 454.643C112.066 453.538 114.42 453.35 118.517 452.94L121.775 453.313L123.509 454.12L126.689 453.537L128.584 462.962L151.138 565.572C155.882 587.728 160.78 613.087 166.25 634.899L179.228 695.092C180.864 702.507 183.442 715.694 185.497 722.443C187.063 729.833 192.359 752.063 193.009 758.485C195.623 768.576 197.913 778.741 199.879 788.972C208.557 821.304 213.982 849.635 213.057 882.996C212.88 889.322 213.788 898.561 212.067 904.521C210.449 905.578 211.111 905.334 208.917 905.07C204.354 901.862 191.561 873.452 188.417 867.009C186.327 862.605 184.319 858.167 182.39 853.689C178.34 846.176 172.163 814.215 170.379 804.572C169.054 799.543 167.343 792.06 166.544 787.019C164.481 778.785 162.651 769.097 160.758 760.66L142.054 674.359C139.544 662.823 137.16 650.491 134.215 639.14C132.778 632.359 131.401 625.562 130.085 618.755C118.788 569.6 108.971 519.613 97.5176 470.562C96.409 469.129 95.2752 461.852 94.9725 459.917L97.3775 459.785L97.6236 458.895L104.597 455.721L108.128 454.643Z" fill="#4A4849"/>
<path d="M165.892 727.716C168.811 726.245 176.557 725.204 179.982 725.161C181.129 725.355 182.829 725.372 183.18 726.18C185.602 731.774 187.095 741.457 188.665 747.447C189.535 749.931 191.584 756.802 193.012 758.484C195.625 768.575 197.915 778.74 199.881 788.971C208.559 821.303 213.984 849.634 213.06 882.995C212.883 889.321 213.791 898.559 212.069 904.519C210.452 905.577 211.113 905.333 208.92 905.069C204.357 901.861 191.563 873.451 188.419 867.008C186.33 862.604 184.322 858.166 182.393 853.688C178.343 846.175 172.165 814.214 170.381 804.571C169.057 799.542 167.345 792.059 166.547 787.017C167.379 783.812 165.475 784.429 167.807 780.644C164.682 766.588 160.799 744.33 156.752 731.438C159.157 730.121 160.7 729.26 163.303 728.275L163.941 728.295L165.892 727.716Z" fill="#D6D4D2"/>
<path d="M194.112 773.285C195.945 779.647 198.36 782.969 199.878 788.973C208.556 821.306 213.981 849.636 213.057 882.997C212.88 889.323 213.788 898.562 212.066 904.522C210.449 905.58 211.11 905.335 208.917 905.072C204.354 901.863 191.56 873.454 188.416 867.011C186.327 862.607 184.318 858.168 182.39 853.69C178.34 846.177 172.162 814.216 170.378 804.573C170.948 805.033 171.455 805.138 172.146 805.371L172.841 804.23C174.076 809.572 175.371 814.948 176.381 820.331L181.802 818.406C187.994 816.233 191.904 815.054 198.466 814.666L203.249 814.389C200.49 802.561 196.23 784.767 194.112 773.285Z" fill="#4A4849"/>
<path d="M183.604 820.289C187.932 819.088 194.143 817.224 198.504 817.085C200.252 823.576 201.524 832.535 203.434 839.135C203.582 839.644 205.956 840.187 206.436 842.781C207.603 849.086 207.976 864.096 210.117 869.4C210.54 877.602 211.328 897.334 210.323 904.805C209.371 903.173 206.778 899.035 206.418 897.436C204.913 895.025 202.041 888.604 200.686 885.782C196.794 879.594 190.157 864.199 186.898 857.056C184.431 851.58 183.089 848.188 181.219 842.479C180.823 838.786 178.045 827.094 177.191 823.018L183.604 820.289Z" fill="#D6D4D2"/>
<path d="M177.2 823.017L183.612 820.288L183.532 820.693L186.207 820.496C188.26 822.516 187.69 839.042 190.229 845.677L188.448 843.61L188.021 843.975L189.235 849.643C190.217 852.501 191.231 855.351 192.274 858.186C195.156 863.653 199.981 879.514 200.695 885.781C196.803 879.593 190.166 864.198 186.906 857.055C184.44 851.579 183.098 848.187 181.228 842.477C180.831 838.784 178.054 827.093 177.2 823.017Z" fill="#CAC8C6"/>
<path d="M183.527 820.692L186.203 820.495C188.255 822.515 187.686 839.042 190.224 845.676L188.444 843.609L188.016 843.974L189.23 849.642C188.297 848.012 187.456 845.004 186.857 843.128C186.258 837.542 183.905 830.657 182.818 825.005C182.345 822.554 182.373 822.39 183.527 820.692Z" fill="#F5F5F4"/>
<path d="M192.277 858.186C191.541 858.236 191.161 857.927 190.508 857.571C188.346 852.991 186.841 849.597 185.862 844.578L186.865 843.129C187.464 845.005 188.305 848.013 189.238 849.644C190.22 852.501 191.234 855.351 192.277 858.186Z" fill="#B0ABA8"/>
<path d="M189.23 849.646L188.017 843.977L188.444 843.612L190.225 845.68C193.59 852.114 207.179 890.24 206.488 896.778C206.475 896.92 206.469 897.053 206.455 897.189C206.447 897.273 206.433 897.353 206.423 897.437C204.917 895.026 202.046 888.606 200.69 885.784C199.977 879.517 195.151 863.655 192.27 858.189C191.226 855.353 190.213 852.504 189.23 849.646Z" fill="#F5F5F4"/>
<path d="M198.507 817.086C200.339 817.288 202.108 817.481 203.946 817.612C207.26 832.167 211.898 854.451 210.121 869.401C207.979 864.097 207.606 849.087 206.439 842.782C205.959 840.188 203.585 839.645 203.438 839.136C201.528 832.536 200.255 823.577 198.507 817.086Z" fill="#CAC8C6"/>
<path d="M182.394 853.692C183.813 850.911 181.639 846.832 181.23 842.481C183.1 848.19 184.442 851.582 186.909 857.058C187.715 860.151 189.11 863.99 188.421 867.013C186.331 862.608 184.323 858.17 182.394 853.692Z" fill="#62605F"/>
<path d="M156.74 731.439C159.146 730.123 160.688 729.262 163.292 728.277C162.42 730.139 162.068 730.245 162.363 732.352C163.182 738.188 164.409 744.269 165.55 750.045C168.153 763.017 170.903 775.963 173.799 788.877C175.031 794.447 179.04 816.028 181.794 818.405L176.373 820.33C175.362 814.948 174.068 809.571 172.833 804.229L172.138 805.371C171.447 805.138 170.94 805.033 170.37 804.572C169.046 799.544 167.334 792.061 166.536 787.019C167.368 783.814 165.463 784.431 167.795 780.646C164.671 766.59 160.788 744.332 156.74 731.439Z" fill="#B0ABA8"/>
<path d="M166.538 787.019C167.37 783.814 165.466 784.431 167.798 780.646C169.767 788.124 171.299 796.58 172.835 804.23L172.14 805.371C171.449 805.138 170.942 805.033 170.372 804.573C169.048 799.544 167.336 792.061 166.538 787.019Z" fill="#62605F"/>
<path d="M179.979 725.164C181.127 725.358 182.827 725.374 183.177 726.182C185.6 731.776 187.092 741.459 188.662 747.449C189.532 749.933 191.582 756.804 193.009 758.486C195.623 768.578 197.913 778.742 199.878 788.973C198.36 782.969 195.945 779.647 194.113 773.285C196.23 784.767 200.49 802.56 203.249 814.389L198.466 814.666C199.204 808.959 182.132 736.246 179.979 725.164Z" fill="#BDBBB8"/>
<path d="M194.118 773.283C192.769 768.249 189.106 752.124 188.668 747.447C189.538 749.931 191.588 756.802 193.015 758.484C195.628 768.576 197.919 778.74 199.884 788.971C198.366 782.967 195.951 779.645 194.118 773.283Z" fill="#565454"/>
<path d="M163.935 728.3L165.886 727.721C166.527 727.709 167.023 728.094 167.602 728.419C168.678 734.452 170.978 742.453 172.367 748.825L182.2 795.25C183.538 801.522 185.968 808.922 186.634 815.12C185.501 816.798 185.966 816.285 183.9 817.115C183.183 816.939 182.111 816.82 182.002 816.219C181.25 812.084 178.536 797.951 177.925 794.888C176.486 787.667 163.654 730.22 163.935 728.3Z" fill="#F5F5F4"/>
<path d="M148.122 636.91C151.837 636.267 156.832 635.223 160.48 635.266L163.547 635.777L166.248 634.899L179.226 695.091C180.862 702.507 183.44 715.693 185.495 722.443C183.306 722.947 183.52 723.255 181.748 722.584L177.9 722.437C172.106 723.219 169.385 723.744 163.73 725.214L163.136 725.491C162.438 724.038 161.03 712.671 160.387 709.906C157.515 697.565 154.568 684.489 151.661 672.226C149.76 664.207 146.75 645.8 143.727 639.124L143.756 638.663C144.917 638.11 146.866 637.412 148.122 636.91Z" fill="#D6D4D2"/>
<path d="M160.487 635.267L163.553 635.778L166.254 634.9L179.233 695.092C180.868 702.507 183.446 715.694 185.501 722.444C183.312 722.948 183.526 723.256 181.755 722.585L177.906 722.438C178.211 722.023 178.515 721.603 178.82 721.188C172.812 692.514 166.236 664.003 160.487 635.267Z" fill="#BDBBB8"/>
<path d="M166.251 634.9L179.23 695.092C180.865 702.507 183.443 715.694 185.498 722.443C183.309 722.947 183.523 723.256 181.752 722.584L182.33 721.644C181.144 712.655 176.542 693.724 174.337 683.959C171.066 669.482 167.531 649.544 163.55 635.778L166.251 634.9Z" fill="#62605F"/>
<path d="M143.756 638.663C144.917 638.11 146.866 637.412 148.122 636.91C149.899 641.252 166.538 719.679 166.467 723.162C165.624 724.355 165.001 724.563 163.73 725.214L163.136 725.491C162.438 724.038 161.03 712.671 160.387 709.906C157.515 697.565 154.568 684.489 151.661 672.226C149.76 664.207 146.75 645.8 143.727 639.124L143.756 638.663Z" fill="#F5F5F4"/>
<path d="M125.146 549.227C131.359 547.25 134.715 546.608 141.234 546.257C142.87 556.462 160.213 629.979 158.479 632.51C154.704 633.036 151.973 633.513 148.262 634.374L147.288 634.5C145.621 635.004 145.244 635.185 143.487 634.982C143.377 634.848 132.888 587.255 131.921 582.951C131.873 580.318 130.066 571.871 129.443 568.938C127.521 562.631 126.06 556.197 125.071 549.681L125.146 549.227Z" fill="#D6D4D2"/>
<path d="M125.07 549.682C126.525 549.272 128.371 548.519 129.645 549.032C133.611 568.982 138.183 588.676 142.155 608.605C143.386 614.779 147.781 629.388 147.287 634.5C145.62 635.004 145.243 635.186 143.486 634.983C143.376 634.848 132.888 587.255 131.92 582.951C131.872 580.319 130.065 571.872 129.442 568.938C127.52 562.632 126.059 556.197 125.07 549.682Z" fill="#F5F5F4"/>
<path d="M106.747 465.353C112.142 463.428 116.304 462.831 121.963 462.065C124.467 468.784 140.401 541.081 139.422 543.557C135.556 543.918 131.845 544.415 128.224 545.826L126.315 546.274C123.436 545.958 121.687 532.477 120.71 529.271C117.689 519.672 112.554 493.607 110.453 482.839C109.012 477.325 107.733 471.768 106.62 466.18L106.854 465.853L106.747 465.353Z" fill="#D6D4D2"/>
<path d="M106.846 465.852C108.456 465.483 110.219 464.733 111.367 465.419L123.043 519.783C123.889 523.653 129.151 544.041 128.216 545.825L126.307 546.273C123.428 545.957 121.679 532.475 120.702 529.27C117.681 519.67 112.546 493.606 110.445 482.838C109.004 477.324 107.725 471.767 106.612 466.179L106.846 465.852Z" fill="#F5F5F4"/>
<path d="M137.51 641.653C139.572 640.472 141.588 639.624 143.754 638.667L143.724 639.128C146.748 645.804 149.758 664.211 151.659 672.23C154.565 684.492 157.512 697.569 160.384 709.91C161.028 712.675 162.436 724.042 163.134 725.495L160.327 727.031C158.84 727.689 158.399 727.957 156.713 728.006C154.899 725.324 140.043 652.245 137.51 641.653Z" fill="#B0ABA8"/>
<path d="M143.727 639.123C146.75 645.8 149.761 664.207 151.662 672.226C154.568 684.488 157.515 697.565 160.387 709.905C161.03 712.67 162.439 724.038 163.136 725.491L160.33 727.027C158.066 722.461 153.752 695.342 152.102 687.868C149.043 674.021 145.441 657.672 142.911 643.515C142.445 640.905 142.409 640.82 143.727 639.123Z" fill="#D6D4D2"/>
<path d="M125.138 549.229L125.063 549.683C126.052 556.198 127.513 562.633 129.435 568.939C130.058 571.873 131.865 580.32 131.913 582.953C132.881 587.257 143.369 634.849 143.479 634.984C145.236 635.187 145.613 635.005 147.28 634.502L148.254 634.376C145.018 635.522 140.039 637.053 137.402 639.041C136.698 637.193 135.526 631.772 135.001 629.587C133.941 622.347 130.89 610.198 129.258 602.745L118.249 552.739L125.138 549.229Z" fill="#BDBBB8"/>
<path d="M131.918 582.952C128.519 581.634 126.869 572.194 127.934 569.179L129.44 568.938C130.064 571.872 131.871 580.319 131.918 582.952Z" fill="#D6D4D2"/>
<path d="M106.747 465.351L106.855 465.852L106.621 466.178C107.734 471.766 109.013 477.323 110.453 482.837C112.554 493.606 117.69 519.67 120.71 529.27C121.688 532.475 123.437 545.957 126.315 546.272C124.635 547.24 119.732 548.864 117.85 549.374C117.048 547.741 110.967 520.113 110.643 517.541C109.519 508.617 99.358 473.862 100.704 467.636C102.047 467.356 105.326 465.928 106.747 465.351Z" fill="#BDBBB8"/>
<path d="M126.31 546.271C124.892 546.627 123.897 547.016 122.498 546.549C120.014 543.509 119.793 532.136 117.975 525.808L118.43 525.153C118.962 526.454 119.289 527.741 119.663 529.091L120.705 529.268C121.683 532.474 123.432 545.955 126.31 546.271Z" fill="#D6D4D2"/>
<path d="M110.449 482.837C110.494 484.62 110.658 486.655 110.174 488.345C109.913 488.118 109.425 487.63 109.351 487.335C107.459 479.767 104.35 473.605 106.617 466.178C107.73 471.766 109.009 477.323 110.449 482.837Z" fill="#CAC8C6"/>
<path d="M108.128 454.642C112.066 453.538 114.421 453.349 118.518 452.94L121.776 453.312L123.51 454.12L126.69 453.537L128.585 462.962L126.059 463.201C125.005 462.813 123.118 462.367 121.962 462.062C116.303 462.828 112.141 463.425 106.746 465.35C105.325 465.927 102.046 467.355 100.702 467.634L97.5184 470.561C96.4098 469.129 95.276 461.852 94.9733 459.917L97.3783 459.784L97.6243 458.894L104.598 455.721L108.128 454.642Z" fill="#2D2C2C"/>
<path d="M94.9734 459.917L97.3784 459.785C98.0227 460.817 99.4318 465.187 100.702 467.635L97.5185 470.562C96.4098 469.129 95.276 461.852 94.9734 459.917Z" fill="#141414"/>
<path d="M123.506 454.122L126.686 453.539L128.581 462.964L126.056 463.204L125.214 462.06C125.901 457.942 123.569 456.014 123.506 454.122Z" fill="#141414"/>
<path d="M105.366 457.788C109.701 456.875 116.806 454.825 120.763 456.285C122.069 458.132 121.707 457.44 121.949 459.782C116.158 460.287 109.607 463.758 106.112 462.214C104.861 460.233 105.277 460.551 105.366 457.788Z" fill="#4A4849"/>
<path d="M141.228 546.256C143.431 546.599 143.036 546.225 144.568 547.514C147.21 557.126 149.429 569.129 151.524 579.03L162.92 631.654C161.779 632.674 159.999 632.742 158.473 632.51C160.207 629.979 142.864 556.461 141.228 546.256Z" fill="#BDBBB8"/>
<path d="M121.961 462.066C123.116 462.371 125.004 462.816 126.058 463.205C128.066 469.917 143.581 542.469 143.358 543.253C141.853 543.915 141.02 543.707 139.419 543.558C140.398 541.082 124.464 468.785 121.961 462.066Z" fill="#BDBBB8"/>
<path d="M130.085 618.758C133.925 621.345 133.495 625.245 135.009 629.587C135.534 631.772 136.706 637.193 137.41 639.041C137.093 639.27 134.81 639.15 134.215 639.143C132.778 632.362 131.401 625.565 130.085 618.758Z" fill="#565454"/>
<path d="M63.2485 345.421C61.1149 340.459 60.5115 336.021 59.3635 330.761C51.3089 293.868 46.3277 255.955 30.8175 221.187C26.2936 211.181 24.233 200.612 21.8249 189.966C17.057 168.882 11.5897 147.963 7.0382 126.838C3.14396 108.762 25.0592 104.618 37.7397 102.886C70.0213 101.492 63.1411 114.046 69.9703 139.377C70.3876 140.926 70.836 142.989 71.0673 144.559C72.4155 150.712 83.3839 198.495 82.79 201.072C84.9 217.872 84.5681 232.354 88.9086 249.134L102.638 308.138C104.451 315.902 109.704 338.332 110.355 345.685C109.26 344.984 108.119 343.236 107.298 342.129C106.887 338.947 106.354 336.162 105.738 333.018C103.855 332.514 101.53 332.109 99.589 331.718L99.0479 331.344C89.5993 331.383 86.9438 332.212 77.9983 334.654L73.8691 336.037L72.0072 337.11C69.6894 338.545 66.7176 340.272 65.3953 342.735L63.2485 345.421Z" fill="#2D2C2C"/>
<path d="M63.2485 345.421C61.1149 340.459 60.5115 336.021 59.3635 330.761C51.3089 293.868 46.3277 255.955 30.8175 221.187C26.2936 211.181 24.233 200.612 21.8249 189.966C17.057 168.882 11.5897 147.963 7.0382 126.838C3.14396 108.762 25.0592 104.618 37.7397 102.886L39.9997 103.812L39.7124 105.411C29.7453 106.618 27.4848 108.516 19.6098 110.001C18.6317 111.824 18.1537 112.221 18.6017 114.536C20.3 123.306 22.5496 132.438 24.5003 141.153L37.2736 198.643C38.6145 205.135 47.8557 223.204 50.6219 231.994C58.898 258.3 65.2115 284.997 70.9615 311.959C71.7483 315.648 75.0193 329.486 75.2718 332.322C81.1345 330.767 91.9748 327.187 97.6659 329.131C98.458 330.055 98.6116 330.214 99.0479 331.344C89.5993 331.383 86.9438 332.212 77.9983 334.654L73.8691 336.037L72.0072 337.11C69.6894 338.545 66.7176 340.272 65.3953 342.735L63.2485 345.421Z" fill="#141414"/>
<path d="M19.6063 110.004C20.9335 110.496 21.7724 110.47 22.383 111.825C25.6334 119.042 26.4309 129.262 28.1131 137.111C30.1015 146.387 41.3248 190.486 38.8597 197.037C38.4854 198.03 38.1336 198.137 37.2701 198.646L24.4969 141.156C22.5462 132.442 20.2966 123.31 18.5983 114.539C18.1503 112.224 18.6283 111.827 19.6063 110.004Z" fill="#4A4849"/>
<path d="M37.7422 102.887C70.0238 101.492 63.1436 114.046 69.9728 139.377C70.3901 140.927 70.8386 142.989 71.0698 144.559C69.0211 142.141 67.4594 134.044 66.1903 130.149C67.0678 134.239 67.476 135.77 67.2633 139.917C61.3172 116.842 67.2002 104.543 39.7149 105.411L40.0022 103.812L37.7422 102.887Z" fill="#141414"/>
<path d="M88.9109 249.132C88.0175 247.608 87.3396 245.986 86.1992 244.669L85.4199 245.616C82.8198 240.382 80.5587 210.521 81.5761 204.132L81.7731 205.117C81.9865 203.208 82.086 202.86 82.7923 201.07C84.9024 217.871 84.5704 232.352 88.9109 249.132Z" fill="#141414"/>
<path d="M35.6232 115.082C38.7329 114.65 42.9011 113.609 46.0571 112.909C47.3419 117.336 51.1445 139.43 53.3275 140.86L56.1337 140.162C58.948 141.562 59.293 145.345 55.7217 146.855C52.5529 147.518 47.6262 148.717 44.5473 148.758L43.0504 147.232C42.1338 142.806 46.291 142.597 45.8189 140.75C44.4878 135.538 43.044 126.058 40.8642 121.124C40.5597 120.434 37.3149 120.367 36.4133 120.351C35.3097 118.928 35.5909 116.932 35.6232 115.082Z" fill="#F5F5F4"/>
<path d="M78.0021 334.656C86.9475 332.215 89.6031 331.386 99.0517 331.347L99.5928 331.72C101.534 332.112 103.859 332.516 105.742 333.02C106.357 336.164 106.891 338.949 107.301 342.131C108.123 343.238 109.263 344.986 110.359 345.687C111.474 350.796 112.673 355.948 113.757 361.064C115.358 368.621 115.552 371.97 110.568 377.93C111.933 394.228 120.685 420.602 123.023 437.398C124.17 442.499 125.378 448.553 126.692 453.54L123.512 454.123L121.778 453.315L118.52 452.943C114.423 453.352 112.068 453.541 108.13 454.645L104.6 455.724L97.6261 458.897L97.38 459.787L94.975 459.92C94.7209 455.754 91.032 440.537 89.9979 435.86C86.3655 418.846 82.4984 401.881 78.399 384.971C76.9321 384.276 73.8816 382.985 73.0469 381.745C67.0928 372.902 67.1754 355.188 63.2522 345.423L65.399 342.737C66.7214 340.274 69.6932 338.547 72.0109 337.112L73.8728 336.039L78.0021 334.656Z" fill="#62605F"/>
<path d="M86.9158 376.407C92.308 373.507 101.349 372.085 107.077 374.671C106.871 376.854 106.611 377.345 105.328 379.12C105.131 383.688 108.81 398.719 110.343 403.402C112.829 407.827 114.396 412.533 115.95 417.35L116.364 418.443C116.861 419.502 122.259 436.566 122.324 437.462L123.022 437.397C124.169 442.498 125.377 448.552 126.691 453.539L123.511 454.122L121.777 453.315L118.519 452.942C114.421 453.352 112.067 453.54 108.129 454.645L104.599 455.723C102.662 450.114 102.023 443.165 100.33 438.039C95.7505 424.179 92.5939 388.988 85.5614 377.729L86.2854 376.561L86.9158 376.407Z" fill="#D6D4D2"/>
<path d="M86.2843 376.56L86.9147 376.406C88.9257 376.025 89.7833 375.515 91.4522 376.157C93.3197 384.89 108.735 452.783 108.128 454.644L104.597 455.722C102.661 450.113 102.022 443.164 100.329 438.038C95.7495 424.178 92.5928 388.987 85.5603 377.728L86.2843 376.56Z" fill="#F5F5F4"/>
<path d="M110.34 403.399C112.825 407.824 114.392 412.53 115.946 417.347L116.36 418.44C116.857 419.499 122.255 436.563 122.321 437.459L123.018 437.394C124.165 442.495 125.373 448.549 126.687 453.536L123.507 454.119L121.773 453.312L118.515 452.939L119.52 451.955C119.448 447.263 117.778 441.104 116.891 436.407C114.897 425.837 111.58 413.954 110.34 403.399Z" fill="#BDBBB8"/>
<path d="M116.358 418.441C116.855 419.5 122.253 436.564 122.319 437.46L123.016 437.395C124.163 442.495 125.371 448.55 126.685 453.537L123.505 454.12L121.771 453.312C122.415 453.01 122.799 452.637 123.363 452.198C123.288 448.477 117.445 423.331 116.358 418.441Z" fill="#565454"/>
<path d="M77.9988 334.653C86.9443 332.211 89.5999 331.382 99.0484 331.343L99.5896 331.716C100.838 341.468 105.57 358.997 106.146 366.751L105.718 367.248C102.234 364.17 90.7541 371.313 85.653 368.581C84.1978 364.649 84.7252 359.353 83.8908 356.586C81.1454 347.488 77.8809 344.571 77.9988 334.653Z" fill="#D6D4D2"/>
<path d="M81.357 379.827C82.5489 378.422 84.6157 377.466 86.2786 376.56L85.5546 377.728C92.5871 388.987 95.7437 424.178 100.323 438.039C102.016 443.165 102.655 450.113 104.592 455.723L97.6182 458.896C92.27 432.957 86.0909 407.251 80.6285 381.343C80.6285 381.343 81.2923 379.964 81.357 379.827Z" fill="#BDBBB8"/>
<path d="M81.3608 379.829C82.5526 378.424 84.6194 377.468 86.2823 376.562L85.5583 377.73C84.2915 382.127 95.7227 415.867 93.0191 419.964C90.3077 415.674 86.1735 383.336 82.5422 379.995L81.3608 379.829Z" fill="#B0ABA8"/>
<path d="M73.8692 336.039L77.9984 334.656C77.8804 344.574 81.145 347.491 83.8904 356.589C84.7248 359.356 84.1974 364.652 85.6526 368.584C90.7537 371.316 102.234 364.173 105.718 367.251C105.013 368.244 103.818 370.109 102.931 370.766C97.2772 370.258 87.9573 372.213 83.1533 375.367C81.5736 375.029 80.9105 374.707 79.4456 374.074C78.9221 373.079 78.6241 366.344 77.564 362.369C75.8255 356.768 72.9208 342.774 72.0073 337.112L73.8692 336.039Z" fill="#F5F5F4"/>
<path d="M65.3918 342.738C66.7141 340.275 69.6859 338.548 72.0037 337.113C72.9172 342.776 75.8219 356.769 77.5604 362.37C78.6205 366.345 78.9185 373.08 79.442 374.075C80.9069 374.708 81.57 375.03 83.1497 375.368C79.2151 377.177 79.2425 378.222 76.0848 380.865C72.0472 378.935 66.8841 349.407 65.3918 342.738Z" fill="#B0ABA8"/>
<path d="M99.5834 331.719C101.525 332.11 103.85 332.515 105.733 333.019C106.348 336.163 106.882 338.948 107.292 342.129C108.271 347.638 114.41 370.114 111.503 373.573L110.363 373.635C106.207 369.657 105.406 372.067 102.925 370.765C103.812 370.108 105.008 368.243 105.712 367.25L106.14 366.753C105.564 358.999 100.832 341.47 99.5834 331.719Z" fill="#B0ABA8"/>
<path d="M107.068 374.669C108.907 382.144 110.282 391.038 112.205 398.717C113.01 401.931 115.792 415.02 115.941 417.348C114.386 412.532 112.82 407.826 110.334 403.401C108.801 398.717 105.122 383.686 105.319 379.118C106.602 377.343 106.861 376.852 107.068 374.669Z" fill="#B0ABA8"/>
</svg>
